<?xml version="1.0" encoding="UTF-8"?>
<!-- Generator: Adobe Illustrator 16.0.0, SVG Export Plug-In . SVG Version: 6.00 Build 0)  -->
<!DOCTYPE svg PUBLIC "-//W3C//DTD SVG 1.1//EN" "http://www.w3.org/Graphics/SVG/1.1/DTD/svg11.dtd">
<svg version="1.1" id="Laag_1_xA0_Afbeelding_1_" xmlns="http://www.w3.org/2000/svg" xmlns:xlink="http://www.w3.org/1999/xlink" x="0px" y="0px" width="847.566px" height="90.833px" viewBox="0 0 847.566 90.833" enable-background="new 0 0 847.566 90.833" xml:space="preserve">
<g>
	<path fill-rule="evenodd" clip-rule="evenodd" fill="#181818" d="M687.747,90.833c-49.44,0-98.881,0-148.321,0   c-7.933-0.001-10.985-3.048-10.986-10.969c-0.002-23.109-0.004-46.22,0.002-69.33c0.001-7.296,3.26-10.533,10.599-10.534   C638.3,0,737.559,0,836.82,0.001c7.502,0,10.729,3.194,10.734,10.716c0.016,23.11,0.015,46.221,0.001,69.33   c-0.005,7.709-3.145,10.785-10.919,10.785C787.006,90.834,737.376,90.833,687.747,90.833z M796.431,70.864   c0.117-0.511,0.194-0.692,0.195-0.873c0.016-7.005-0.004-14.009,0.058-21.014c0.013-1.4,0.145-2.852,0.535-4.188   c1.113-3.801,4.393-5.78,8.581-5.362c4.002,0.398,6.595,2.664,6.839,6.651c0.3,4.904,0.184,9.836,0.221,14.755   c0.025,3.286,0.005,6.572,0.005,9.998c4.529,0,8.734,0,12.891,0c0-9.591,0.586-19.067-0.154-28.438   c-0.855-10.831-10.402-16.802-20.907-13.974c-4.33,1.167-7.524,3.967-10.186,7.805c-2.9-5.454-7.364-7.966-13.019-8.357   c-5.72-0.396-10.499,1.605-14.438,6.972c0-2.646,0-4.474,0-6.314c-4.518,0-8.721,0-12.911,0c0,14.243,0,28.287,0,42.271   c4.424,0,8.625,0,12.982,0c0-1.268,0-2.3,0-3.332c0.001-6.437-0.047-12.874,0.02-19.311c0.049-4.652,2.267-7.672,6.029-8.492   c6.087-1.326,10.063,1.814,10.209,8.339c0.149,6.623,0.036,13.252,0.052,19.878c0.003,0.992,0.087,1.983,0.135,2.987   C788.042,70.864,792.175,70.864,796.431,70.864z M731.916,35.089c-7.478-11.309-25.73-9.344-30.311,5.079   c-1.281,4.037-1.69,8.602-1.375,12.841c0.599,8.023,4.036,14.761,12.212,17.525c7.477,2.529,14.174,1.083,19.519-6.33   c0,2.704,0,4.694,0,6.677c4.508,0,8.639,0,12.888,0c0-14.201,0-28.25,0-42.35c-4.378,0-8.576,0-12.933,0   C731.916,30.612,731.916,32.486,731.916,35.089z M666.015,52.181c1.2,0,2.227,0,3.253,0c7.856,0,15.713-0.03,23.568,0.024   c1.649,0.012,2.579-0.229,2.721-2.228c0.687-9.727-4.398-17.952-13.126-20.952c-9.907-3.405-21.026-0.147-26.13,7.655   c-4.912,7.51-4.694,19.291,0.491,26.606c4.902,6.916,14.354,9.946,23.665,7.586c7.574-1.921,13.491-8.111,14.193-15.148   c-4.252,0-8.479-0.037-12.704,0.051c-0.479,0.009-1.065,0.637-1.396,1.119c-2.474,3.622-5.585,4.847-9.494,3.661   C667.767,59.559,666.006,56.785,666.015,52.181z M583,42.647c-0.746-2.068-1.184-3.812-1.973-5.376   c-4.48-8.89-17.686-12.461-27.309-7.408c-4.998,2.624-7.102,6.838-6.58,12.423c0.478,5.116,3.686,7.875,8.209,9.421   c1.961,0.67,4.001,1.104,5.998,1.671c2.54,0.721,5.196,1.208,7.553,2.323c1.04,0.492,2.049,2.308,1.995,3.474   c-0.046,1.005-1.443,2.405-2.549,2.819c-3.376,1.267-7.069-0.58-8.702-3.883c-0.277-0.561-0.938-1.309-1.44-1.323   c-3.814-0.11-7.636-0.061-11.621-0.061c0.816,4.833,2.667,8.673,6.465,11.049c7.793,4.876,16.07,5.297,24.318,1.311   c4.271-2.063,6.251-5.945,6.091-10.728c-0.164-4.844-2.677-8.221-7.035-10.103c-2.325-1.003-4.835-1.585-7.271-2.327   c-2.706-0.825-5.525-1.39-8.083-2.54c-0.954-0.43-1.928-2.296-1.76-3.321s1.618-2.317,2.741-2.62   c3.481-0.937,6.041,0.501,7.942,3.824c0.322,0.563,0.992,1.298,1.521,1.314C575.178,42.701,578.85,42.647,583,42.647z    M614.162,39.615c0-4.059,0-7.591,0-11.398c-2.841,0-5.445,0-8.352,0c0-3.539,0-6.802,0-10.122c-4.518,0-8.712,0-13.201,0   c0,3.467,0,6.734,0,10.328c-2.023,0-3.762,0-5.424,0c0,3.88,0,7.413,0,11.022c1.892,0.102,3.553,0.191,5.482,0.296   c0,5.759-0.101,11.325,0.024,16.887c0.165,7.327,3.479,12.212,9.729,13.59c3.803,0.839,7.81,0.744,11.868,1.08   c0-4.196,0-7.812,0-11.709c-1.716,0-3.213,0.029-4.708-0.008c-2.108-0.052-3.508-1.103-3.545-3.249   c-0.094-5.462-0.031-10.926-0.031-16.717C608.786,39.615,611.388,39.615,614.162,39.615z M634.504,70.893   c0.104-0.531,0.172-0.715,0.173-0.897c0.013-5.864,0.012-11.729,0.03-17.593c0.021-7.093,3.015-10.162,10.146-10.395   c1.462-0.048,2.927-0.007,4.352-0.007c0-4.986,0-9.48,0-14.11c-6.122,0.016-10.469,3.037-14.617,7.938c0-2.974,0-5.169,0-7.271   c-4.549,0-8.748,0-12.841,0c0,14.269,0,28.303,0,42.335C626.121,70.893,630.251,70.893,634.504,70.893z"/>
	<path fill-rule="evenodd" clip-rule="evenodd" fill="#181818" d="M327.145,73.58c0-10.712,0-21.257,0-31.801   c-0.202-0.048-0.404-0.095-0.605-0.143c-0.333,0.917-0.679,1.829-0.998,2.75c-3.127,9.018-6.287,18.024-9.337,27.068   c-0.562,1.666-1.259,2.512-3.161,2.354c-2.162-0.18-4.363-0.175-6.525,0.012c-1.897,0.163-2.583-0.68-3.146-2.341   c-3.128-9.217-6.37-18.396-9.575-27.587c-0.263-0.753-0.545-1.5-1.338-2.143c0,10.555,0,21.108,0,31.844c-4.365,0-8.476,0-12.77,0   c0-17.602,0-35.172,0-53.199c4.886,0,9.858-0.078,14.821,0.102c0.604,0.021,1.361,1.354,1.703,2.217   c4.108,10.368,8.151,20.763,12.215,31.149c0.41,1.049,0.845,2.088,1.487,3.673c0.598-1.438,1.029-2.406,1.408-3.395   c4.02-10.504,8.063-21,12.013-31.53c0.62-1.653,1.413-2.349,3.262-2.285c4.325,0.147,8.658,0.047,13.145,0.047   c0,17.884,0,35.452,0,53.208C335.654,73.58,331.628,73.58,327.145,73.58z"/>
	<path fill-rule="evenodd" clip-rule="evenodd" fill="#181818" d="M390.543,19.611c9.151,0.344,18.309-0.147,27.187,1.206   c15.574,2.375,22.599,15.597,20.635,30.138c-1.847,13.673-10.824,21.704-25.227,22.641c-7.431,0.484-14.918,0.086-22.595,0.086   C390.543,55.823,390.543,38.027,390.543,19.611z M403.488,31.272c0,10.438,0,20.58,0,30.963c7.411,0.035,14.965,0.857,19.613-6.311   c3.668-5.656,3.717-11.999,0.354-17.791C418.987,30.441,411.213,31.151,403.488,31.272z"/>
	<path fill-rule="evenodd" clip-rule="evenodd" fill="#181818" d="M100.362,46.726c-0.043,15.679-11.734,27.553-27.141,27.565   C57.715,74.305,45.906,62.246,46.006,46.5c0.1-15.688,11.748-27.328,27.318-27.3C88.875,19.228,100.406,30.968,100.362,46.726z    M73.61,31.159c-8.825-0.109-14.374,5.74-14.488,15.276c-0.113,9.467,5.523,15.812,14.053,15.818   c8.398,0.006,14.044-6.214,14.095-15.527C87.32,37.497,81.85,31.261,73.61,31.159z"/>
	<path fill-rule="evenodd" clip-rule="evenodd" fill="#181818" d="M237.567,73.769c-4.093,0-8.135,0.046-12.173-0.055   c-0.545-0.014-1.141-0.701-1.582-1.194c-0.293-0.327-0.361-0.861-0.516-1.308c-2.518-7.292-2.518-7.292-10.067-7.292   c-3.5,0-7.003,0.086-10.499-0.035c-1.732-0.06-2.502,0.576-2.992,2.216c-0.753,2.519-1.13,5.946-2.908,7.143   c-1.912,1.287-5.257,0.464-7.978,0.527c-1.6,0.037-3.2,0.007-5.08,0.007c0.363-1.206,0.605-2.189,0.953-3.134   c5.841-15.857,11.742-31.694,17.491-47.586c0.788-2.178,1.847-2.875,4.086-2.738c3.299,0.201,6.624-0.054,9.925,0.124   c0.871,0.047,2.191,0.783,2.467,1.518c6.334,16.882,12.552,33.808,18.781,50.729C237.568,72.941,237.527,73.242,237.567,73.769z    M211.054,35.044c-0.23-0.011-0.461-0.022-0.691-0.034c-2.126,6.251-4.251,12.502-6.444,18.95c4.697,0,8.916,0,13.519,0   C215.25,47.48,213.152,41.262,211.054,35.044z"/>
	<path fill-rule="evenodd" clip-rule="evenodd" fill="#181818" d="M518.359,73.763c-4.113,0-7.994,0.087-11.865-0.076   c-0.727-0.031-1.717-0.921-2.055-1.658c-0.864-1.881-1.574-3.863-2.071-5.873c-0.458-1.85-1.458-2.307-3.241-2.271   c-5.207,0.104-10.419,0.101-15.627,0.001c-1.717-0.033-2.518,0.541-3.01,2.199c-0.749,2.522-1.131,5.955-2.911,7.152   c-1.915,1.288-5.265,0.461-7.989,0.522c-1.601,0.036-3.203,0.007-5.074,0.007c0.368-1.209,0.616-2.197,0.967-3.147   c5.847-15.88,11.741-31.743,17.519-47.648c0.731-2.014,1.697-2.78,3.867-2.652c3.398,0.202,6.822-0.055,10.223,0.131   c0.847,0.047,2.107,0.865,2.393,1.625c6.31,16.816,12.509,33.674,18.72,50.526C518.296,72.855,518.28,73.149,518.359,73.763z    M491.76,34.977c-0.213,0.004-0.426,0.008-0.64,0.011c-2.13,6.27-4.262,12.54-6.421,18.895c4.791,0,8.979,0,13.477,0   C495.966,47.37,493.863,41.173,491.76,34.977z"/>
	<path fill-rule="evenodd" clip-rule="evenodd" fill="#181818" d="M157.955,39.286c-4.304,0-8.265,0.075-12.218-0.068   c-0.709-0.026-1.597-0.817-2.044-1.492c-3.387-5.108-8.328-7.28-14.118-6.08c-5.173,1.07-9.182,5.245-9.681,11.186   c-0.315,3.759-0.063,7.778,0.971,11.385c1.388,4.839,5.218,7.579,10.348,7.944c4.967,0.354,9.223-1.294,11.924-5.628   c1.127-1.809,2.344-2.31,4.324-2.222c3.386,0.151,6.782,0.042,10.562,0.042c-1.943,8.401-6.317,14.593-14.043,17.588   c-18.978,7.356-39.661-3.319-37.462-28.252c1.148-13.025,8.221-21.325,19.707-23.564c14.159-2.761,27.189,2.916,31.397,17.306   C157.75,37.869,157.788,38.336,157.955,39.286z"/>
	<path fill-rule="evenodd" clip-rule="evenodd" fill="#181818" d="M39.176,35.022c-4.434,0-8.585,0.073-12.729-0.084   c-0.587-0.021-1.319-1.08-1.663-1.81c-1.323-2.809-3.311-4.316-6.269-3.736c-1.553,0.305-3.421,1.396-4.194,2.698   c-1.101,1.853-0.68,4.202,1.225,5.614c1.568,1.164,3.384,2.053,5.193,2.82c3.217,1.363,6.575,2.403,9.763,3.829   c6.979,3.122,10.268,8.491,9.686,15.436c-0.568,6.773-5.191,12.077-12.447,13.718c-7.381,1.669-14.53,0.956-20.914-3.495   C2.723,67.15,0.573,63.14,0.382,57.887c4.566,0,8.889,0,13.201,0c2.139,4.993,4.054,6.507,7.88,6.252   c2.169-0.144,3.831-1.06,4.573-3.194c0.754-2.172,0.422-4.284-1.438-5.646c-1.726-1.263-3.727-2.205-5.708-3.05   c-3.475-1.482-7.114-2.597-10.528-4.2C2.777,45.426-0.051,40.832,0,34.665c0.051-6.146,2.866-10.776,8.51-13.3   c7.207-3.222,14.57-3.125,21.717,0.17C35.754,24.083,38.433,28.754,39.176,35.022z"/>
	<path fill-rule="evenodd" clip-rule="evenodd" fill="#181818" d="M349.634,20.078c11.026,0,21.957,0,33.077,0   c0,3.251,0,6.418,0,9.948c-6.614,0-13.267,0-20.135,0c0,3.977,0,7.596,0,11.593c5.954,0,11.855,0,17.848,0c0,3.354,0,6.333,0,9.618   c-5.979,0-11.805,0-17.848,0c0,4.123,0,7.946,0,12.111c6.61,0,13.27,0,20.124,0c0,3.584,0,6.835,0,10.253   c-10.97,0-21.905,0-33.066,0C349.634,55.833,349.634,38.031,349.634,20.078z"/>
	<path fill-rule="evenodd" clip-rule="evenodd" fill="#181818" d="M243.337,20.043c4.236,0,8.275,0,12.637,0   c0,14.535,0,28.975,0,43.748c5.845,0,11.384,0,17.157,0c0,3.401,0,6.477,0,9.771c-9.81,0-19.699,0-29.794,0   C243.337,55.851,243.337,38.098,243.337,20.043z"/>
	<path fill-rule="evenodd" clip-rule="evenodd" fill="#181818" d="M178.039,73.656c-4.338,0-8.384,0-12.595,0   c0-17.871,0-35.619,0-53.549c4.19,0,8.301,0,12.595,0C178.039,37.95,178.039,55.694,178.039,73.656z"/>
	<path fill-rule="evenodd" clip-rule="evenodd" fill="#181818" d="M446.247,20.065c4.164,0,8.204,0,12.483,0   c0,17.769,0,35.508,0,53.475c-4.035,0-8.146,0-12.483,0C446.247,55.89,446.247,38.145,446.247,20.065z"/>
	<path fill-rule="evenodd" clip-rule="evenodd" fill="#181818" d="M713.508,49.635c0.016-6.396,3.479-10.188,9.245-10.128   c5.605,0.059,9.177,4.117,9.122,10.366c-0.052,5.956-3.78,10.018-9.228,10.053C717.034,59.961,713.492,55.974,713.508,49.635z"/>
	<path fill-rule="evenodd" clip-rule="evenodd" fill="#181818" d="M682.05,46.381c-5.427,0-10.672,0-15.916,0   c-0.027-4.832,3.056-7.909,7.922-8.01C679.074,38.269,681.823,40.917,682.05,46.381z"/>
</g>
</svg>